Coordinates
version=1
nRows=11
nColumns=36
inDegrees=yes

Units are S.I. units (second, meters, Newtons, ...)
If the header above contains a line with 'inDegrees', this indicates whether rotational values are in degrees (yes) or radians (no).

endheader
time	pelvis_tilt	pelvis_list	pelvis_rotation	pelvis_tx	pelvis_ty	pelvis_tz	hip_flexion_r	hip_adduction_r	hip_rotation_r	knee_angle_r	knee_angle_r_beta	ankle_angle_r	subtalar_angle_r	mtp_angle_r	hip_flexion_l	hip_adduction_l	hip_rotation_l	knee_angle_l	knee_angle_l_beta	ankle_angle_l	subtalar_angle_l	mtp_angle_l	lumbar_extension	lumbar_bending	lumbar_rotation	arm_flex_r	arm_add_r	arm_rot_r	elbow_flex_r	pro_sup_r	arm_flex_l	arm_add_l	arm_rot_l	elbow_flex_l	pro_sup_l
      3.76666670	      0.84558891	      2.83779008	      4.95528521	      0.72423573	      0.94870958	      0.20501650	     54.94606460	     -3.57355161	      5.81941725	     27.34809552	      0.47731431	      2.68894847	      3.60070965	     -7.49999987	      8.82000848	      7.80668769	     -9.39326311	     21.76185117	      0.37981595	      6.17622132	    -10.63423823	     -7.49999987	    -13.48516240	     -8.91712985	      0.17152211	     40.45183028	      6.26032573	     51.04453316	    124.34886979	     95.71684953	     45.72173522	     -1.44615441	     62.77591576	    121.45980434	     90.85101316
      3.78333330	      0.40395136	      2.31031324	      4.84269176	      0.72497317	      0.95072006	      0.20453015	     56.03848001	     -3.11841996	      5.59847721	     28.30153393	      0.49395495	      3.31517178	      3.48980063	     -7.49999987	      8.91235814	      7.25960271	     -9.44144511	     21.07383328	      0.36780778	      5.64525202	    -10.97487656	     -7.49999987	    -12.61897124	     -8.53768096	      0.27136066	     39.88427423	      6.37989617	     51.33513923	    124.91957174	     97.08041449	     44.80510488	     -1.30123446	     63.32885563	    122.21042685	     95.00641232
      3.80000000	      0.27350912	      2.12154049	      4.91545194	      0.71906778	      0.94963703	      0.20158968	     57.01459919	     -3.07355480	      5.59264137	     29.38660663	      0.51289304	      3.45142177	      3.43640036	     -7.49999987	      9.14248177	      7.05480328	     -9.59105967	     20.90033386	      0.36477964	      5.15573657	    -11.26448464	     -7.49999987	    -12.55751384	     -8.48479481	      0.22444489	     39.87157366	      6.00744988	     51.82083774	    125.45200551	     97.15221979	     44.20637858	     -1.88646101	     65.54545091	    124.20342079	     95.22687713
      3.81666670	      0.20570114	      1.76463666	      4.94980138	      0.72465259	      0.95076997	      0.20383996	     57.57943287	     -2.88261110	      5.49489427	     30.16134108	      0.52641471	      4.02536202	      3.36581083	     -7.49999987	      9.10525884	      6.68152317	     -9.61729617	     20.52913241	      0.35830095	      4.91288087	    -11.57285336	     -7.49999987	    -12.33560943	     -8.22966264	      0.23034869	     39.32895178	      5.75686402	     52.00611759	    125.80571855	     97.23207104	     43.26400451	     -2.29903913	     66.89620301	    125.65964276	     95.37010083
      3.83333330	      0.32160054	      1.61680078	      5.16497343	      0.71866577	      0.94942439	      0.20085828	     58.01378563	     -3.03328099	      5.30839784	     30.92305749	      0.53970917	      4.08120601	      3.26880940	     -7.49999987	      8.93816470	      6.57117119	     -9.70145278	     20.25291244	      0.35348001	      4.56503303	    -11.69894210	     -7.49999987	    -12.34356799	     -8.12733923	      0.07130192	     39.24658527	      5.42089459	     52.23481578	    126.08248683	     97.28648353	     43.01756140	     -2.23117198	     67.34029633	    126.47610865	     95.42158901
      3.85000000	      0.26034213	      1.71613900	      5.33551296	      0.71912415	      0.94480705	      0.20064076	     58.66951299	     -3.28943251	      5.57074197	     31.72142554	      0.55364332	      4.55846226	      3.50983437	     -7.49999987	      9.00426294	      6.79548002	     -9.59300959	     20.05383917	      0.35000552	      3.89781548	    -12.49844060	     -7.49999987	    -12.32337192	     -8.24733742	     -0.00070907	     39.62012538	      5.13076741	     52.77352856	    127.44928328	     96.62955955	     42.85703254	     -2.10903377	     68.10231353	    128.65339843	     94.77790943
      3.86666670	      0.34321361	      1.48694929	      5.47185553	      0.72338328	      0.94715992	      0.20268035	     58.75908075	     -3.29261867	      5.43107933	     32.01010830	      0.55868178	      4.93797103	      3.38507682	     -7.49999987	      8.58852742	      6.58044896	     -9.64320649	     19.57568603	      0.34166017	      3.74668696	    -12.56331185	     -7.49999987	    -12.11626948	     -7.96308650	      0.36799974	     39.38315917	      4.80166631	     52.79662220	    127.63132299	     96.66606123	     41.89541058	     -2.14324805	     68.27467325	    128.91548085	     94.80717990
      3.88333330	      0.44955384	      1.42128224	      5.58859923	      0.71891153	      0.94688573	      0.19990469	     58.73468567	     -3.39254879	      5.48087110	     32.02688186	      0.55897454	      4.94885984	      3.50584753	     -7.49999987	      8.19494823	      6.59284102	     -9.74806146	     19.08459304	      0.33308898	      3.35389421	    -12.60558455	     -7.49999987	    -12.05047085	     -7.89851014	      0.56967241	     39.18998465	      4.25823168	     52.67313646	    128.04001572	     96.73272915	     41.11082049	     -2.03220652	     68.15444577	    129.58378681	     94.82657333
      3.90000000	      0.48448778	      1.10569207	      5.46937668	      0.72311136	      0.94474972	      0.20270693	     58.64047687	     -3.01006888	      5.60563580	     31.91126744	      0.55695669	      5.19700301	      3.34916835	     -7.49999987	      7.89512540	      6.26133661	    -10.05162520	     18.66689407	      0.32579876	      2.98570492	    -12.83070850	     -7.49999987	    -11.79576152	     -7.57864365	      0.81050587	     38.85585428	      4.23288035	     52.59263807	    128.89047335	     96.86140945	     40.69295718	     -1.98052703	     67.62586426	    130.46572019	     94.84241225
      3.91666670	      0.46934259	      1.02997697	      5.61989104	      0.71854197	      0.94215981	      0.19974936	     58.69678575	     -3.02534197	      5.67862217	     31.89934098	      0.55674853	      5.16638059	      3.29550648	     -7.49999987	      7.90855138	      6.24324006	    -10.21577523	     18.44490979	      0.32192441	      2.95575225	    -12.90821051	     -7.49999987	    -11.57804572	     -7.48819173	      0.44099572	     39.05360796	      4.33144520	     52.67375972	    129.10266491	     96.90742303	     41.16555538	     -1.55912404	     67.39809288	    130.58029304	     94.84662129
      3.93333330	      0.96894833	      1.07776136	      5.82795115	      0.71763379	      0.94686608	      0.19941335	     57.93034720	     -3.22002411	      5.62422475	     31.31712977	      0.54658703	      4.87497607	      3.47559666	     -7.49999987	      7.23757281	      6.35639243	    -10.11281513	     17.90939396	      0.31257789	      2.32865396	    -13.36555748	     -7.49999987	    -12.25089180	     -7.38670468	      0.52019414	     39.33567978	      3.77153259	     53.28393346	    129.61947977	     96.43247824	     40.82957677	     -2.03192083	     67.42808734	    130.71909184	     94.05463776
